<?xml version="1.0" standalone="no"?><svg xmlns="http://www.w3.org/2000/svg" viewBox="0 0 1440 320"><path fill="#0099ff" fill-opacity="1" d="M0,64L21.8,90.7C43.6,117,87,171,131,181.3C174.5,192,218,160,262,128C305.5,96,349,64,393,80C436.4,96,480,160,524,208C567.3,256,611,288,655,272C698.2,256,742,192,785,181.3C829.1,171,873,213,916,224C960,235,1004,213,1047,208C1090.9,203,1135,213,1178,234.7C1221.8,256,1265,288,1309,277.3C1352.7,267,1396,213,1418,186.7L1440,160L1440,320L1418.2,320C1396.4,320,1353,320,1309,320C1265.5,320,1222,320,1178,320C1134.5,320,1091,320,1047,320C1003.6,320,960,320,916,320C872.7,320,829,320,785,320C741.8,320,698,320,655,320C610.9,320,567,320,524,320C480,320,436,320,393,320C349.1,320,305,320,262,320C218.2,320,175,320,131,320C87.3,320,44,320,22,320L0,320Z"></path></svg>